<?xml version="1.0" encoding="utf-8" ?>
<svg xmlns="http://www.w3.org/2000/svg" xmlns:xlink="http://www.w3.org/1999/xlink" width="1024" height="1024">
	<path fill="#1D1D1F" d="M489.743 213.608C496.154 213.038 531.262 212.273 535.265 214.512C536.9 215.427 537.984 217.459 538.765 219.104C541.014 223.841 542.364 229.352 543.969 234.351C547.542 245.481 550.843 256.818 554.9 267.78C569.451 269.608 582.91 273.23 596.696 278.134C602.256 271.041 610.003 264.807 616.866 258.986C621.713 254.875 633.813 242.766 640.581 243.584C642.391 243.803 644.168 244.548 645.799 245.333C650.889 247.784 655.667 251.211 660.648 253.931C665.014 256.316 669.779 258.088 674.003 260.706C675.262 261.486 677.002 262.681 677.769 263.996C681.04 269.606 671.694 310.204 669.634 318.573C680.758 327.795 691.649 336.539 700.616 348.015C709.761 345.565 748.295 331.517 755.922 335.777C759.331 337.68 778.458 366.818 779.419 371.146C779.716 372.482 779.719 373.813 779.174 375.085C777.338 379.374 773.417 383.341 770.411 386.851C764.06 394.266 750.699 408.325 746.134 415.976C746.051 416.115 745.972 416.258 745.891 416.399C751.983 429.667 756.438 443.327 760.555 457.313C770.114 458.345 779.847 461.082 789.252 463.101C796.584 464.674 804.991 465.727 811.996 468.323C813.967 469.054 815.576 469.855 816.962 471.451C817.538 472.986 817.825 474.457 817.943 476.093C818.439 482.926 817.807 490.088 817.798 496.958C817.791 502.257 818.345 507.639 818.12 512.919C818.045 514.699 817.903 516.66 817.175 518.313C816.409 520.055 814.632 520.91 812.993 521.698C808.085 524.058 802.563 525.569 797.41 527.374C787.428 530.871 777.291 534.389 767.551 538.512C766.743 546.65 766.207 555.002 764.874 563.064C793.362 562.859 821.929 562.556 850.411 563.164C846.467 571.672 841.613 579.957 837.216 588.252C825.329 610.674 812.856 632.928 801.365 655.54C811.604 675.975 822.496 696.198 833.04 716.487C837.481 725.032 842.884 733.433 846.401 742.403Q761.205 741.456 676.003 741.549C677.327 745.395 679.459 749.821 678.334 753.929C676.164 761.851 644.852 779.238 637.051 783.505C631.225 778.565 625.877 772.667 620.329 767.385C613.493 760.877 605.831 754.514 599.695 747.359C586.28 753.405 570.185 755.254 555.734 757.453C552.233 765.972 541.255 803.549 537.386 807.943C536.237 808.612 535.083 809.102 533.762 809.301C528.55 810.085 522.73 809.571 517.456 809.555L488.173 809.56C485.353 803.808 483.365 797.3 481.04 791.307C476.844 780.499 472.438 769.744 468.49 758.845C455.574 754.294 442.057 750.619 428.728 747.503C414.151 760.111 398.759 771.757 384.198 784.412C371.642 776.557 359.448 768.04 346.928 760.094C346.973 754.243 347.483 748.22 348.207 742.415C339.558 742.013 330.815 742.278 322.153 742.275L276.69 742.25C244.143 742.232 211.451 741.542 178.928 742.371C185.573 727.366 193.55 712.87 200.743 698.112C207.439 684.373 213.588 669.447 221.569 656.415C211.576 633.781 199.633 611.706 188.378 589.657C183.972 581.024 178.934 572.423 175.183 563.491L260.372 563.723C258.772 554.744 257.807 545.484 257.003 536.406C249.027 534.089 241.157 530.907 233.295 528.199C226.135 525.734 218.499 523.631 211.574 520.599C209.371 519.635 208.076 518.828 207.24 516.484C206.087 513.251 205.97 474.243 207.531 471.898C208.426 470.553 210.747 469.638 212.191 469.11C218.154 466.93 224.941 465.725 231.105 464.088C241.93 461.213 252.993 457.671 264.053 455.895C267.972 442.48 273.147 429.634 278.65 416.81C268.681 403.424 257.332 390.952 247.69 377.344C246.231 375.285 245.248 373.62 245.783 371.045C246.097 369.535 246.791 368.115 247.552 366.785C249.409 363.537 251.929 360.556 253.935 357.372C257.678 351.433 261.069 344.874 265.292 339.291C266.239 338.039 267.564 336.31 268.984 335.554C270.978 334.492 273.412 334.584 275.596 334.819C282.397 335.552 289.334 337.797 295.996 339.42C305.205 341.665 314.5 343.636 323.618 346.23Q326.974 342.352 330.554 338.68Q334.134 335.007 337.925 331.554Q341.717 328.101 345.707 324.879Q349.697 321.657 353.871 318.677C352.347 308.59 350.422 298.544 348.539 288.517C347.336 282.114 345.478 275.165 345.461 268.65C345.454 266.187 345.578 264.593 347.469 262.844C349.72 260.762 375.746 246.879 379.93 245.085C381.885 244.247 383.854 243.549 386.012 243.64C387.603 243.707 389.499 244.123 390.823 245.051C396.346 248.919 401.488 254.99 406.418 259.697C413.046 266.025 420.213 271.974 426.376 278.751C440.058 272.842 455.431 270.41 469.916 267.286Q470.586 265.109 471.191 262.914C474.055 252.737 477.64 242.799 480.853 232.732C482.48 227.633 483.668 221.011 486.317 216.378C487.084 215.036 488.437 214.342 489.743 213.608ZM202.515 580.511C209.45 593.895 215.999 607.467 222.849 620.893C228.712 632.385 235.006 643.792 240.304 655.551C230.188 679.08 216.418 701.199 206.936 725.004C258.376 725.769 309.917 725.098 361.368 725.082L817.326 724.706C817.284 723.349 816.652 722.406 816.008 721.258C809.717 708.147 802.928 695.207 796.103 682.364C791.492 673.684 786.562 665.052 782.669 656.025C786.214 646.666 791.571 637.749 796.278 628.937C804.755 613.067 813.546 597.153 821.264 580.896L522.685 580.822L329.218 580.639C286.993 580.619 244.737 581.035 202.515 580.511ZM500.399 328.301Q498.109 328.423 495.822 328.6Q493.535 328.777 491.253 329.009Q488.972 329.242 486.696 329.529Q484.421 329.816 482.153 330.158Q479.885 330.5 477.626 330.897Q475.367 331.294 473.118 331.745Q470.869 332.196 468.632 332.702Q466.395 333.207 464.17 333.766Q461.946 334.325 459.736 334.938Q457.526 335.551 455.331 336.217Q453.136 336.883 450.958 337.601Q448.78 338.32 446.62 339.091Q444.46 339.862 442.319 340.685Q440.178 341.508 438.058 342.382Q435.937 343.257 433.839 344.182Q431.74 345.107 429.664 346.083Q427.589 347.059 425.537 348.084Q423.486 349.11 421.46 350.184Q419.433 351.259 417.434 352.383Q415.434 353.506 413.462 354.677Q411.49 355.848 409.547 357.067Q407.604 358.286 405.691 359.551Q403.778 360.816 401.896 362.127Q400.014 363.437 398.164 364.793Q396.314 366.149 394.497 367.55Q392.681 368.95 390.899 370.393Q389.116 371.837 387.37 373.323Q385.623 374.81 383.912 376.338Q382.202 377.866 380.529 379.434Q378.856 381.003 377.221 382.612Q375.586 384.221 373.991 385.868Q372.395 387.516 370.84 389.202Q369.221 390.934 367.646 392.707Q366.071 394.479 364.541 396.29Q363.011 398.101 361.526 399.949Q360.041 401.797 358.603 403.682Q357.164 405.567 355.773 407.487Q354.382 409.407 353.039 411.361Q351.696 413.315 350.402 415.301Q349.109 417.288 347.865 419.306Q346.621 421.325 345.427 423.373Q344.234 425.422 343.092 427.5Q341.95 429.578 340.86 431.683Q339.77 433.789 338.733 435.921Q337.695 438.052 336.711 440.21Q335.727 442.367 334.798 444.548Q333.868 446.729 332.992 448.932Q332.117 451.135 331.297 453.36Q330.476 455.584 329.712 457.829Q328.947 460.073 328.239 462.335Q327.53 464.598 326.878 466.878Q326.226 469.157 325.631 471.452Q325.036 473.747 324.498 476.056Q323.96 478.365 323.48 480.687Q322.999 483.009 322.577 485.342Q322.155 487.675 321.791 490.017Q321.427 492.36 321.121 494.711Q320.815 497.063 320.568 499.421Q320.321 501.779 320.132 504.142Q319.944 506.505 319.815 508.873Q319.685 511.24 319.615 513.61Q319.544 515.98 319.532 518.351Q319.521 520.722 319.568 523.092Q319.616 525.463 319.722 527.831C320.262 539.678 321.866 552.068 324.521 563.633L521.375 563.603L637.967 563.529C658.192 563.506 678.613 564.071 698.817 563.319C700.713 551.33 702.783 539.396 703.319 527.247Q703.403 525.236 703.445 523.224Q703.487 521.212 703.487 519.2Q703.487 517.187 703.445 515.175Q703.402 513.163 703.318 511.152Q703.233 509.142 703.106 507.133Q702.979 505.125 702.81 503.119Q702.641 501.114 702.43 499.112Q702.219 497.111 701.966 495.115Q701.713 493.118 701.418 491.127Q701.123 489.136 700.786 487.152Q700.449 485.168 700.071 483.192Q699.693 481.215 699.273 479.247Q698.853 477.279 698.392 475.32Q697.931 473.361 697.429 471.412Q696.927 469.463 696.384 467.525Q695.841 465.587 695.258 463.661Q694.674 461.735 694.051 459.821Q693.427 457.908 692.763 456.008Q692.099 454.108 691.396 452.223Q690.692 450.337 689.949 448.467Q689.206 446.597 688.424 444.742Q687.642 442.888 686.821 441.051Q686 439.213 685.141 437.393Q684.281 435.573 683.384 433.772Q682.487 431.971 681.552 430.189Q680.617 428.406 679.645 426.644Q678.672 424.882 677.663 423.141Q676.654 421.4 675.609 419.68Q674.564 417.96 673.483 416.263Q672.401 414.565 671.285 412.891Q670.168 411.217 669.016 409.566Q667.865 407.916 666.679 406.29Q665.302 404.4 663.88 402.545Q662.458 400.689 660.991 398.869Q659.524 397.049 658.013 395.265Q656.502 393.481 654.947 391.734Q653.393 389.988 651.797 388.28Q650.2 386.572 648.562 384.904Q646.925 383.235 645.247 381.607Q643.569 379.979 641.851 378.393Q640.134 376.806 638.378 375.262Q636.623 373.718 634.83 372.218Q633.037 370.717 631.209 369.26Q629.38 367.804 627.516 366.393Q625.652 364.981 623.754 363.616Q621.857 362.251 619.926 360.932Q617.995 359.613 616.033 358.342Q614.071 357.071 612.078 355.849Q610.086 354.626 608.064 353.452Q606.042 352.278 603.992 351.154Q601.942 350.03 599.865 348.957Q597.788 347.883 595.686 346.861Q593.583 345.838 591.456 344.868Q589.329 343.897 587.18 342.978Q585.03 342.06 582.858 341.194Q580.686 340.328 578.494 339.516Q576.302 338.703 574.09 337.944Q571.879 337.186 569.65 336.481Q567.42 335.777 565.175 335.127Q562.929 334.477 560.668 333.883Q558.407 333.288 556.132 332.749Q553.857 332.209 551.57 331.726Q549.282 331.242 546.984 330.815Q544.685 330.387 542.377 330.016C528.942 327.913 513.924 326.714 500.399 328.301ZM501.717 292.778C443.562 295.198 385.244 322.828 345.875 365.518Q343.982 367.572 342.14 369.672Q340.298 371.772 338.509 373.917Q336.72 376.062 334.985 378.251Q333.25 380.44 331.569 382.672Q329.889 384.903 328.264 387.175Q326.64 389.447 325.072 391.759Q323.505 394.071 321.995 396.421Q320.485 398.772 319.034 401.158Q317.583 403.545 316.192 405.967Q314.801 408.389 313.47 410.845Q312.139 413.301 310.87 415.79Q309.6 418.278 308.393 420.797Q307.186 423.316 306.041 425.864Q304.897 428.412 303.816 430.987Q302.735 433.563 301.719 436.165Q300.702 438.767 299.751 441.393Q298.799 444.019 297.913 446.668Q297.026 449.317 296.206 451.987Q295.386 454.657 294.632 457.347Q293.879 460.037 293.192 462.744Q292.505 465.452 291.886 468.176Q291.267 470.899 290.715 473.638Q290.164 476.376 289.68 479.127Q289.197 481.878 288.782 484.641Q288.367 487.403 288.021 490.175Q287.674 492.946 287.397 495.726Q287.119 498.505 286.911 501.291Q286.703 504.076 286.564 506.866Q286.424 509.656 286.354 512.448Q286.285 515.241 286.284 518.034Q286.283 520.827 286.352 523.62Q286.421 526.412 286.559 529.202Q287.346 546.542 290.486 563.613L311.791 563.528C309.733 551.677 307.872 540.034 307.332 528.005Q307.242 525.93 307.194 523.854Q307.147 521.778 307.142 519.701Q307.136 517.624 307.173 515.547Q307.21 513.471 307.29 511.396Q307.369 509.32 307.491 507.247Q307.612 505.174 307.776 503.103Q307.94 501.033 308.146 498.967Q308.352 496.9 308.6 494.838Q308.848 492.776 309.138 490.72Q309.429 488.663 309.761 486.613Q310.093 484.563 310.466 482.52Q310.84 480.477 311.255 478.442Q311.67 476.407 312.127 474.381Q312.584 472.355 313.082 470.339Q313.579 468.323 314.118 466.317Q314.657 464.311 315.237 462.317Q315.816 460.323 316.437 458.341Q317.057 456.359 317.717 454.39Q318.378 452.421 319.078 450.465Q319.778 448.51 320.518 446.57Q321.259 444.629 322.038 442.704Q322.818 440.779 323.636 438.871Q324.455 436.962 325.312 435.07Q326.17 433.179 327.065 431.305Q327.961 429.431 328.895 427.576Q329.828 425.721 330.8 423.885Q331.771 422.05 332.78 420.234Q333.788 418.419 334.834 416.624Q335.879 414.83 336.961 413.057Q338.042 411.284 339.16 409.533Q340.278 407.783 341.431 406.056Q342.584 404.328 343.772 402.625Q344.927 400.95 346.115 399.298Q347.304 397.647 348.525 396.019Q349.747 394.392 351.002 392.79Q352.256 391.188 353.543 389.612Q354.83 388.036 356.148 386.486Q357.467 384.936 358.817 383.414Q360.166 381.891 361.547 380.396Q362.927 378.901 364.337 377.435Q365.748 375.968 367.187 374.53Q368.627 373.092 370.096 371.684Q371.565 370.276 373.062 368.898Q374.559 367.52 376.083 366.172Q377.608 364.825 379.16 363.509Q380.711 362.192 382.289 360.908Q383.867 359.623 385.471 358.371Q387.075 357.119 388.704 355.9Q390.333 354.68 391.986 353.494Q393.639 352.308 395.316 351.156Q396.993 350.003 398.693 348.885Q400.394 347.767 402.116 346.684Q403.838 345.601 405.582 344.553Q407.326 343.505 409.091 342.492Q410.856 341.48 412.641 340.503Q414.427 339.527 416.231 338.587Q418.036 337.647 419.859 336.743Q421.682 335.84 423.524 334.974Q425.365 334.108 427.223 333.279Q429.082 332.451 430.957 331.66Q432.831 330.87 434.722 330.117Q436.612 329.365 438.518 328.651Q440.423 327.937 442.343 327.262Q444.262 326.587 446.195 325.951C455.139 322.942 464.236 320.211 473.543 318.589Q485.016 316.624 496.629 315.846Q508.243 315.068 519.875 315.485C570.567 316.256 621.967 338.995 657.246 375.303C695.363 414.531 716.818 466.121 715.978 520.907C715.758 535.254 713.535 548.962 711.696 563.12L733.941 563.128Q734.463 560.327 734.916 557.514Q735.37 554.701 735.754 551.878Q736.138 549.055 736.453 546.223Q736.767 543.392 737.012 540.553Q737.258 537.715 737.433 534.871Q737.608 532.027 737.714 529.18Q737.819 526.333 737.855 523.484Q737.891 520.635 737.857 517.786Q737.822 514.937 737.718 512.09Q737.614 509.243 737.44 506.399Q737.266 503.555 737.022 500.716Q736.778 497.878 736.465 495.046Q736.152 492.214 735.769 489.391Q735.386 486.567 734.934 483.754Q734.483 480.941 733.962 478.14Q733.441 475.339 732.852 472.551Q732.262 469.764 731.605 466.992Q730.947 464.219 730.222 461.464Q729.496 458.709 728.703 455.972Q727.911 453.236 727.051 450.519Q726.191 447.803 725.265 445.109Q724.339 442.414 723.347 439.743Q722.355 437.072 721.298 434.427Q720.241 431.781 719.119 429.162Q717.997 426.543 716.811 423.952Q715.626 421.362 714.377 418.801Q713.128 416.24 711.816 413.711Q710.505 411.181 709.132 408.685Q707.759 406.188 706.325 403.726Q704.891 401.264 703.397 398.838Q701.903 396.412 700.35 394.024Q698.797 391.635 697.186 389.285Q695.577 386.985 693.912 384.725Q692.247 382.466 690.527 380.248Q688.807 378.03 687.032 375.856Q685.257 373.682 683.429 371.552Q681.601 369.422 679.72 367.338Q677.84 365.254 675.909 363.218Q673.978 361.181 671.996 359.193Q670.015 357.204 667.985 355.266Q665.956 353.327 663.879 351.44Q661.801 349.552 659.678 347.716Q657.555 345.881 655.387 344.098Q653.219 342.315 651.007 340.587Q648.796 338.859 646.542 337.186Q644.288 335.513 641.994 333.896Q639.7 332.279 637.366 330.72Q635.032 329.16 632.661 327.659Q630.289 326.158 627.881 324.716Q625.473 323.274 623.03 321.892Q620.587 320.51 618.11 319.189Q615.634 317.868 613.126 316.609Q610.617 315.35 608.078 314.153Q605.539 312.956 602.972 311.823Q600.404 310.689 597.809 309.62Q595.214 308.55 592.593 307.545Q589.973 306.54 587.328 305.6Q584.683 304.66 582.016 303.786Q579.349 302.912 576.661 302.104Q573.973 301.297 571.266 300.556Q568.558 299.815 565.834 299.141Q563.109 298.467 560.368 297.861Q557.628 297.255 554.873 296.718Q552.118 296.18 549.351 295.71C533.91 292.956 517.379 291.892 501.717 292.778Z"/>
	<path fill="#1D1D1F" d="M506.533 353.6C512.658 353.228 518.16 353.64 523.483 356.997Q523.987 357.317 524.475 357.662Q524.963 358.007 525.432 358.376Q525.902 358.745 526.353 359.137Q526.804 359.529 527.234 359.943Q527.665 360.357 528.074 360.791Q528.484 361.226 528.871 361.681Q529.258 362.136 529.622 362.61Q529.986 363.083 530.326 363.575Q530.665 364.066 530.98 364.574Q531.295 365.081 531.584 365.604Q531.873 366.127 532.136 366.663Q532.398 367.2 532.633 367.749Q532.869 368.298 533.077 368.858Q533.284 369.418 533.464 369.988Q533.643 370.557 533.794 371.135Q533.944 371.713 534.066 372.298Q534.197 372.931 534.297 373.569Q534.397 374.207 534.466 374.85Q534.535 375.492 534.572 376.137Q534.609 376.782 534.615 377.428Q534.62 378.074 534.594 378.72Q534.568 379.365 534.51 380.009Q534.453 380.652 534.364 381.292Q534.275 381.932 534.154 382.567Q534.034 383.201 533.883 383.83Q533.732 384.458 533.55 385.078Q533.368 385.698 533.156 386.308Q532.944 386.918 532.702 387.517Q532.461 388.117 532.19 388.703Q531.92 389.29 531.621 389.863Q531.322 390.435 530.995 390.993Q530.669 391.55 530.315 392.091C526.405 398.009 521.148 401.06 514.36 402.479C508.771 402.655 503.828 402.365 498.809 399.514C493.058 396.248 488.881 390.54 487.146 384.192Q486.977 383.576 486.841 382.952Q486.704 382.327 486.599 381.697Q486.494 381.067 486.422 380.432Q486.349 379.797 486.309 379.16Q486.269 378.522 486.262 377.883Q486.254 377.244 486.28 376.606Q486.305 375.967 486.363 375.331Q486.421 374.695 486.511 374.062Q486.601 373.43 486.723 372.803Q486.846 372.175 487 371.555Q487.154 370.935 487.34 370.324Q487.526 369.713 487.742 369.112Q487.959 368.511 488.206 367.921Q488.453 367.332 488.73 366.756Q489.007 366.18 489.313 365.62Q489.619 365.059 489.953 364.514C493.823 358.311 499.625 355.228 506.533 353.6ZM509.115 366.477C505.115 368.228 501.798 369.874 500.071 374.198C498.99 376.903 499.141 380.067 500.33 382.713C501.631 385.604 504.042 387.567 506.979 388.667C508.709 389.314 510.396 389.307 512.217 389.279C515.757 387.94 518.523 386.242 520.171 382.694Q520.42 382.155 520.614 381.594Q520.809 381.033 520.948 380.456Q521.086 379.879 521.168 379.291Q521.249 378.703 521.272 378.109Q521.295 377.516 521.26 376.924Q521.224 376.331 521.131 375.745Q521.038 375.158 520.888 374.584Q520.737 374.01 520.531 373.453Q520.342 372.939 520.102 372.446Q519.862 371.954 519.573 371.489Q519.284 371.023 518.95 370.589Q518.615 370.156 518.238 369.758Q517.861 369.36 517.446 369.003Q517.031 368.646 516.581 368.332Q516.132 368.019 515.653 367.753Q515.174 367.487 514.671 367.271C512.843 366.469 511.079 366.462 509.115 366.477Z"/>
	<path fill="#1D1D1F" d="M584.54 402.751C587.759 403.12 602.709 418.153 605.683 420.859C586.241 438.978 567.291 457.667 548.035 475.991C532.813 490.477 515.567 505.805 501.725 521.52C491.336 511.788 481.936 501.023 471.315 491.501C464.456 484.897 457.757 477.864 450.448 471.768C457.518 464.864 464.374 457.742 471.403 450.796C476.638 455.518 481.455 460.847 486.413 465.866C491.567 471.082 496.94 476.096 501.915 481.484C516.664 468.107 530.816 454.061 545.222 440.318C558.334 427.809 571.758 415.596 584.54 402.751Z"/>
	<path fill="#1D1D1F" d="M447.74 411.614C462.35 411.079 477.088 411.469 491.711 411.485Q522.264 411.396 552.816 411.703C548.777 415.927 544.558 421.154 539.809 424.491L448.695 424.445C447.138 426.19 445.008 428.273 444.498 430.643C442.821 438.428 443.928 452.663 443.92 461.195L443.93 525.364C445.461 528.11 446.839 529.587 449.436 531.419C455.406 532.509 461.933 532.074 467.995 532.045L493.993 531.921C518.376 531.873 543.174 532.921 567.495 531.529C569.011 530.38 570.397 529.131 571.801 527.849C573.679 523.156 572.805 481.308 572.464 473.69C576.424 469.719 580.615 464.853 585.51 462.101L585.534 504.632C585.54 511.466 585.964 518.537 585.429 525.337Q585.281 527.21 584.885 529.047Q584.49 530.884 583.853 532.652C582.035 537.585 577.969 541.791 573.098 543.822C570.836 544.765 568.242 544.85 565.818 544.958C545.404 545.865 524.583 545.086 504.145 545.069L469.102 545.033C463.122 545.028 457.038 545.312 451.073 544.998C448.649 544.871 446.532 544.433 444.314 543.43C438.978 541.015 434.586 536.53 432.66 530.961C431.997 529.044 431.657 527.071 431.547 525.049C430.718 509.881 431.477 494.281 431.468 479.061C431.459 463.385 430.665 447.215 431.595 431.595C431.764 428.75 431.978 425.742 433.275 423.159C436.302 417.13 441.452 413.61 447.74 411.614Z"/>
	<path fill="#1D1D1F" d="M267.087 618.067C284.534 618.059 302.045 617.741 319.484 618.223C319.136 622.067 319.02 625.809 319.087 629.668Q309.141 629.593 299.196 629.7C299.749 643.824 299.359 658.107 299.395 672.25L299.473 691.848L286.6 691.763L286.698 629.71C280.23 629.391 273.689 629.55 267.21 629.536L267.087 618.067Z"/>
	<path fill="#1D1D1F" d="M497.988 618.09C515.655 618.234 533.347 618.002 551.01 618.355L550.843 629.827C544.1 629.223 536.997 629.527 530.23 629.803C530.515 642.933 530.309 656.114 530.341 669.25Q530.414 680.553 530.263 691.856L517.846 691.531C517.139 671.033 517.559 650.397 517.513 629.884C511.091 629.47 504.55 629.653 498.111 629.622L497.988 618.09Z"/>
	<path fill="#1D1D1F" d="M407.53 617.212C416.137 617.375 424.504 618.56 431.127 624.562Q429.06 630.073 427.131 635.633C421.656 631.261 416.117 628.783 408.993 628.822C405.323 628.843 401.569 629.242 398.929 632.052C397.391 633.691 395.684 636.204 395.941 638.567C396.815 646.605 420.209 649.94 427.277 655.5Q427.984 656.046 428.632 656.66Q429.281 657.274 429.864 657.95Q430.447 658.626 430.959 659.358Q431.471 660.09 431.906 660.869Q432.342 661.649 432.697 662.468Q433.051 663.288 433.322 664.139Q433.592 664.99 433.775 665.864Q433.958 666.738 434.052 667.626C434.69 673.417 433.486 679.488 429.716 684.062C425.285 689.439 417.986 692.058 411.22 692.572C401.428 692.868 393.615 690.81 384.442 687.581C384.304 683.156 384.545 678.776 384.822 674.362C392.755 678.651 401.72 681.71 410.902 680.884C414.363 680.572 417.374 679.237 419.563 676.459C421.153 674.442 421.567 671.471 421.08 668.997C419.376 660.343 398.872 658.641 391.6 653.838C387.901 651.394 385.27 647.876 384.585 643.433C383.645 637.341 384.33 630.701 388.209 625.748C392.918 619.736 400.328 617.963 407.53 617.212Z"/>
	<path fill="#1D1D1F" d="M482.687 618.174C487.138 617.784 491.767 618.042 496.24 618.048C493.47 623.128 489.619 627.664 486.101 632.24C480.66 639.318 475.169 646.347 470.177 653.753C476.943 660.758 482.694 669.327 488.572 677.105Q493.908 684.356 499.411 691.481L484.649 691.538C476.554 682.563 469.104 671.888 462.365 661.859L456.936 661.985C456.649 671.627 456.869 681.301 456.936 690.946L444.541 691.423L444.526 638.291C444.524 633.668 443.648 622.715 444.747 618.708L445.931 618.246C449.492 618.198 453.041 618.307 456.599 618.42C456.961 623.814 456.817 629.289 456.963 634.696C457.105 639.919 457.603 645.311 457.122 650.517C465.288 639.827 473.237 627.724 482.687 618.174Z"/>
	<path fill="#1D1D1F" d="M625.582 618.439Q648.447 618.277 671.311 618.468L671.263 629.621L638.532 629.981L638.53 648.786C648.205 648.293 657.951 648.511 667.639 648.514C667.684 652.243 667.567 655.984 667.516 659.713L638.76 659.777L638.571 661.376L638.736 680.468C649.793 680.293 660.893 680.089 671.948 680.384Q671.978 685.984 671.695 691.577L625.795 691.612C624.861 667.255 626.247 642.801 625.582 618.439Z"/>
	<path fill="#1D1D1F" d="M682.912 618.263L695.823 618.276L696.077 652.45C704.019 640.735 713.842 629.312 723.035 618.556C727.808 618.182 732.597 618.403 737.377 618.528C729.602 630.501 719.674 641.531 710.996 652.897L726.076 673.779C730.334 679.59 734.609 685.471 738.38 691.611L723.732 691.637C715.539 681.99 707.889 670.827 701.206 660.058L695.92 664.1C695.534 673.215 695.875 682.432 695.941 691.556L683.423 691.604C682.608 678.364 683.164 664.94 682.981 651.674C682.874 643.922 681.346 624.721 682.912 618.263Z"/>
	<path fill="#1D1D1F" d="M341.969 617.539L348.49 617.569C353.852 627.886 357.827 639.434 362.418 650.144C368.329 663.933 374.978 677.637 380.354 691.629L366.808 691.52C364.547 686.63 362.578 681.557 360.669 676.522L348.75 676.441C342.794 676.468 336.53 676.783 330.626 676.024Q327.318 683.816 323.836 691.531C319.663 691.603 315.482 691.567 311.307 691.578C315.698 679.123 321.156 666.89 326.206 654.68C331.33 642.29 336.169 629.622 341.969 617.539ZM345.215 637.821Q339.731 652.298 334.409 666.835C337.904 666.627 341.376 666.649 344.875 666.685L356.419 666.525C352.62 656.974 349.282 647.268 345.215 637.821Z"/>
	<path fill="#1D1D1F" d="M565.339 618.241C577.122 618.693 591.164 616.478 602.094 621.654C606.847 623.904 610.399 627.718 612.074 632.727C614.097 638.78 613.805 646.793 610.829 652.47C607.962 657.942 603.415 660.529 597.71 662.237C603.739 672.243 610.83 681.537 616.829 691.561C613.953 691.668 611.055 691.827 608.177 691.773C605.285 691.72 603.949 691.645 601.943 689.545C596.36 681.248 590.423 673.036 585.319 664.439C580.87 664.363 576.412 664.459 571.963 664.495C571.879 673.58 572.309 682.639 572.084 691.732L559.502 691.648C558.866 667.281 559.47 642.764 559.51 618.38L565.339 618.241ZM571.968 629.741C571.958 637.515 571.8 645.32 572 653.09C579.847 653.095 591.273 654.901 597.521 649.438C600.072 646.119 601.386 643.95 600.799 639.645C600.411 636.795 599.36 634.39 597.044 632.601C591.163 628.058 579.133 629.52 571.968 629.741Z"/>
</svg>
